<svg width="29" height="28" viewBox="0 0 29 28" fill="none" xmlns="http://www.w3.org/2000/svg">
<path d="M14.5 0C11.6322 0 8.82875 0.79239 6.44424 2.27697C4.05972 3.76155 2.20122 5.87163 1.10375 8.34039C0.00628257 10.8092 -0.280866 13.5257 0.27862 16.1465C0.838106 18.7674 2.2191 21.1747 4.24696 23.0643C6.27482 24.9538 8.85847 26.2405 11.6712 26.7618C14.4839 27.2832 17.3994 27.0156 20.0489 25.993C22.6984 24.9704 24.963 23.2387 26.5563 21.0169C28.1496 18.7951 29 16.1829 29 13.5107C28.9959 9.92862 27.467 6.49431 24.7486 3.96138C22.0302 1.42844 18.3444 0.00378277 14.5 0ZM14.5 24.9429C12.0734 24.9429 9.70125 24.2724 7.68358 23.0162C5.66592 21.76 4.09334 19.9746 3.16471 17.8856C2.23609 15.7967 1.99311 13.498 2.46652 11.2804C2.93994 9.0628 4.10847 7.02579 5.82435 5.42697C7.54023 3.82816 9.7264 2.73935 12.1064 2.29824C14.4864 1.85713 16.9533 2.08352 19.1952 2.94879C21.4371 3.81407 23.3533 5.27935 24.7015 7.15936C26.0497 9.03937 26.7692 11.2497 26.7692 13.5107C26.7655 16.5417 25.4717 19.4475 23.1716 21.5907C20.8715 23.7339 17.7529 24.9394 14.5 24.9429ZM10.0385 13.5107C10.0385 14.3832 10.3331 15.2336 10.8806 15.9415C11.4281 16.6493 12.2008 17.1786 13.0891 17.4545C13.9775 17.7305 14.9365 17.7389 15.8303 17.4788C16.7241 17.2186 17.5074 16.703 18.0692 16.005C18.2469 15.7845 18.5113 15.6388 18.8043 15.5999C19.0973 15.5611 19.3948 15.6323 19.6315 15.7978C19.8681 15.9634 20.0245 16.2097 20.0662 16.4827C20.1079 16.7557 20.0315 17.0329 19.8538 17.2535C19.0109 18.3002 17.8359 19.0732 16.4952 19.4632C15.1546 19.8531 13.7162 19.8402 12.3839 19.4262C11.0516 19.0122 9.89283 18.2182 9.07171 17.1565C8.25059 16.0948 7.80874 14.8194 7.80874 13.5107C7.80874 12.2021 8.25059 10.9266 9.07171 9.86497C9.89283 8.8033 11.0516 8.00925 12.3839 7.59526C13.7162 7.18127 15.1546 7.16834 16.4952 7.55828C17.8359 7.94823 19.0109 8.7213 19.8538 9.768C19.9418 9.87718 20.0059 10.0014 20.0423 10.1337C20.0787 10.2659 20.0869 10.4036 20.0662 10.5387C20.0456 10.6739 19.9965 10.804 19.9219 10.9215C19.8474 11.039 19.7486 11.1417 19.6315 11.2236C19.5143 11.3056 19.3809 11.3653 19.239 11.3992C19.0971 11.4332 18.9494 11.4408 18.8043 11.4215C18.6592 11.4023 18.5196 11.3566 18.3935 11.2871C18.2674 11.2176 18.1572 11.1256 18.0692 11.0164C17.5074 10.3184 16.7241 9.80283 15.8303 9.54267C14.9365 9.28252 13.9775 9.291 13.0891 9.56691C12.2008 9.84282 11.4281 10.3722 10.8806 11.08C10.3331 11.7878 10.0385 12.6382 10.0385 13.5107Z" fill="black"/>
</svg>
