<svg width="30" height="30" viewBox="0 0 30 30" fill="none" xmlns="http://www.w3.org/2000/svg">
<path d="M23.0203 5.19C22.6649 5.19 22.3174 5.29557 22.0218 5.49335C21.7262 5.69114 21.4958 5.97226 21.3598 6.30117C21.2238 6.63008 21.1882 6.992 21.2575 7.34116C21.3269 7.69033 21.4981 8.01106 21.7494 8.26279C22.0008 8.51453 22.321 8.68596 22.6697 8.75541C23.0183 8.82487 23.3797 8.78922 23.7081 8.65298C24.0366 8.51675 24.3173 8.28604 24.5148 7.99003C24.7123 7.69402 24.8177 7.34601 24.8177 6.99C24.8177 6.51261 24.6283 6.05477 24.2912 5.71721C23.9542 5.37964 23.497 5.19 23.0203 5.19ZM29.9101 8.82C29.881 7.57545 29.6482 6.3441 29.2211 5.175C28.8403 4.1747 28.2476 3.26892 27.4837 2.52C26.7421 1.75114 25.8355 1.16126 24.8326 0.795C23.6684 0.354241 22.4375 0.115815 21.193 0.0899999C19.6054 -8.3819e-08 19.0961 0 15.0222 0C10.9482 0 10.439 -8.3819e-08 8.85133 0.0899999C7.6069 0.115815 6.37601 0.354241 5.21172 0.795C4.21071 1.16497 3.30494 1.75434 2.56064 2.52C1.79292 3.26277 1.20392 4.17066 0.838196 5.175C0.39809 6.34101 0.160016 7.57373 0.134239 8.82C0.0443725 10.41 0.0443726 10.92 0.0443726 15C0.0443726 19.08 0.0443725 19.59 0.134239 21.18C0.160016 22.4263 0.39809 23.659 0.838196 24.825C1.20392 25.8293 1.79292 26.7372 2.56064 27.48C3.30494 28.2457 4.21071 28.835 5.21172 29.205C6.37601 29.6458 7.6069 29.8842 8.85133 29.91C10.439 30 10.9482 30 15.0222 30C19.0961 30 19.6054 30 21.193 29.91C22.4375 29.8842 23.6684 29.6458 24.8326 29.205C25.8355 28.8387 26.7421 28.2489 27.4837 27.48C28.2509 26.7339 28.8442 25.8273 29.2211 24.825C29.6482 23.6559 29.881 22.4246 29.9101 21.18C29.9101 19.59 30 19.08 30 15C30 10.92 30 10.41 29.9101 8.82ZM27.2141 21C27.2032 21.9522 27.031 22.8956 26.7049 23.79C26.4657 24.4428 26.0816 25.0326 25.5815 25.515C25.0957 26.0108 24.508 26.3946 23.8591 26.64C22.966 26.9666 22.024 27.1391 21.0732 27.15C19.5754 27.225 19.0213 27.24 15.0821 27.24C11.1429 27.24 10.5888 27.24 9.09097 27.15C8.10377 27.1685 7.12078 27.0163 6.18527 26.7C5.56487 26.4421 5.00406 26.0592 4.53772 25.575C4.04059 25.0931 3.66128 24.5028 3.42936 23.85C3.06368 22.9427 2.86087 21.9779 2.83025 21C2.83025 19.5 2.74038 18.945 2.74038 15C2.74038 11.055 2.74038 10.5 2.83025 9C2.83696 8.02658 3.0144 7.06192 3.35447 6.15C3.61815 5.51687 4.02288 4.95249 4.53772 4.5C4.99276 3.98425 5.55514 3.57464 6.18527 3.3C7.09825 2.97007 8.06049 2.79762 9.03106 2.79C10.5288 2.79 11.083 2.7 15.0222 2.7C18.9613 2.7 19.5155 2.7 21.0133 2.79C21.9641 2.80092 22.9061 2.97337 23.7992 3.3C24.4798 3.55298 25.0907 3.96427 25.5815 4.5C26.0724 4.96077 26.4559 5.5241 26.7049 6.15C27.0378 7.0634 27.2101 8.02767 27.2141 9C27.289 10.5 27.304 11.055 27.304 15C27.304 18.945 27.289 19.5 27.2141 21ZM15.0222 7.305C13.5031 7.30797 12.0191 7.76179 10.7575 8.60913C9.49589 9.45646 8.51339 10.6593 7.93413 12.0656C7.35488 13.472 7.20485 15.0187 7.50301 16.5104C7.80118 18.0021 8.53415 19.3718 9.60932 20.4465C10.6845 21.5211 12.0536 22.2525 13.5437 22.5482C15.0337 22.8439 16.5779 22.6907 17.981 22.1078C19.3841 21.525 20.5833 20.5387 21.4269 19.2736C22.2705 18.0084 22.7208 16.5213 22.7208 15C22.7228 13.9877 22.5249 12.9849 22.1385 12.0494C21.7521 11.114 21.1849 10.2642 20.4694 9.54908C19.7539 8.83394 18.9044 8.26752 17.9695 7.88239C17.0347 7.49727 16.033 7.30104 15.0222 7.305ZM15.0222 19.995C14.0357 19.995 13.0714 19.702 12.2512 19.1532C11.431 18.6043 10.7917 17.8242 10.4142 16.9115C10.0367 15.9988 9.93796 14.9945 10.1304 14.0255C10.3229 13.0566 10.7979 12.1666 11.4954 11.468C12.1929 10.7694 13.0816 10.2937 14.0491 10.101C15.0167 9.90824 16.0195 10.0072 16.9309 10.3852C17.8422 10.7633 18.6212 11.4035 19.1692 12.2249C19.7173 13.0464 20.0098 14.0121 20.0098 15C20.0098 15.656 19.8808 16.3055 19.6301 16.9115C19.3795 17.5175 19.0121 18.0682 18.549 18.532C18.0858 18.9958 17.536 19.3638 16.9309 19.6148C16.3257 19.8658 15.6772 19.995 15.0222 19.995Z" fill="black"/>
</svg>
