<svg width="31" height="30" viewBox="0 0 31 30" fill="none" xmlns="http://www.w3.org/2000/svg">
<path d="M28.0631 0.000209743H2.53757C2.25064 -0.00375713 1.96573 0.0485803 1.69912 0.154233C1.43251 0.259886 1.18942 0.416785 0.98373 0.615969C0.77804 0.815153 0.613781 1.05272 0.500333 1.31511C0.386885 1.57749 0.326471 1.85955 0.32254 2.14518V27.8548C0.326471 28.1404 0.386885 28.4225 0.500333 28.6849C0.613781 28.9473 0.77804 29.1848 0.98373 29.384C1.18942 29.5832 1.43251 29.7401 1.69912 29.8458C1.96573 29.9514 2.25064 30.0038 2.53757 29.9998H28.0631C28.3501 30.0038 28.635 29.9514 28.9016 29.8458C29.1682 29.7401 29.4113 29.5832 29.617 29.384C29.8227 29.1848 29.9869 28.9473 30.1004 28.6849C30.2138 28.4225 30.2742 28.1404 30.2782 27.8548V2.14518C30.2742 1.85955 30.2138 1.57749 30.1004 1.31511C29.9869 1.05272 29.8227 0.815153 29.617 0.615969C29.4113 0.416785 29.1682 0.259886 28.9016 0.154233C28.635 0.0485803 28.3501 -0.00375713 28.0631 0.000209743ZM9.40868 25.1099H4.88821V11.61H9.40868V25.1099ZM7.14844 9.72007C6.52502 9.72007 5.92712 9.47354 5.48629 9.03471C5.04546 8.59588 4.7978 8.0007 4.7978 7.38011C4.7978 6.75951 5.04546 6.16433 5.48629 5.7255C5.92712 5.28667 6.52502 5.04014 7.14844 5.04014C7.47949 5.00277 7.81472 5.03542 8.13221 5.13596C8.4497 5.23651 8.74227 5.40267 8.99077 5.62357C9.23927 5.84448 9.4381 6.11514 9.57423 6.41784C9.71037 6.72054 9.78074 7.04846 9.78074 7.38011C9.78074 7.71176 9.71037 8.03967 9.57423 8.34237C9.4381 8.64507 9.23927 8.91574 8.99077 9.13664C8.74227 9.35754 8.4497 9.52371 8.13221 9.62425C7.81472 9.72479 7.47949 9.75745 7.14844 9.72007ZM25.7125 25.1099H21.192V17.865C21.192 16.05 20.5441 14.865 18.9017 14.865C18.3933 14.8687 17.8984 15.0274 17.4835 15.3198C17.0686 15.6121 16.7537 16.024 16.5812 16.5C16.4632 16.8525 16.4121 17.2238 16.4305 17.595V25.0949H11.91C11.91 25.0949 11.91 12.825 11.91 11.595H16.4305V13.5C16.8411 12.7907 17.4384 12.2063 18.1579 11.8098C18.8775 11.4134 19.6921 11.2198 20.514 11.2501C23.5276 11.2501 25.7125 13.185 25.7125 17.34V25.1099Z" fill="black"/>
</svg>
