<svg width="31" height="30" viewBox="0 0 31 30" fill="none" xmlns="http://www.w3.org/2000/svg">
<path d="M30.6036 3.5942C29.4778 4.19507 28.2872 4.59228 27.0689 4.77347C28.3542 3.8288 29.3174 2.34267 29.7799 0.590742C28.572 1.47531 27.2497 2.09855 25.8706 2.43336C24.9488 1.20354 23.7213 0.384916 22.3805 0.105861C21.0398 -0.173193 19.6617 0.10311 18.4623 0.891437C17.263 1.67976 16.3102 2.93552 15.7535 4.46177C15.1968 5.98802 15.0676 7.69842 15.3862 9.32473C12.9439 9.17276 10.555 8.39044 8.37455 7.02858C6.1941 5.66672 4.27091 3.75579 2.72993 1.41992C2.18943 2.58107 1.90543 3.89606 1.90615 5.23413C1.90423 6.47675 2.15211 7.70068 2.62771 8.79694C3.10331 9.8932 3.79188 10.8278 4.63211 11.5174C3.65552 11.4847 2.6998 11.1624 1.84624 10.5777V10.6698C1.85355 12.4109 2.34948 14.0954 3.25013 15.4385C4.15077 16.7815 5.40085 17.7006 6.78891 18.0403C6.25459 18.2403 5.69984 18.3458 5.14135 18.3535C4.75476 18.348 4.36913 18.3048 3.98806 18.2246C4.38334 19.7222 5.14828 21.0311 6.17643 21.969C7.20459 22.907 8.44482 23.4273 9.72456 23.4576C7.56357 25.5494 4.89554 26.6911 2.14579 26.7006C1.64514 26.7026 1.14488 26.6657 0.64801 26.59C3.45549 28.8201 6.72722 30.0039 10.0691 29.9988C12.3752 30.0283 14.663 29.4922 16.7988 28.4217C18.9346 27.3513 20.8756 25.768 22.5084 23.7644C24.1413 21.7607 25.4332 19.3769 26.3088 16.7521C27.1844 14.1274 27.6261 11.3142 27.6081 8.47713C27.6081 8.16388 27.6081 7.83221 27.6081 7.50054C28.7834 6.42226 29.797 5.1004 30.6036 3.5942Z" fill="black"/>
</svg>
