<svg width="31" height="30" viewBox="0 0 31 30" fill="none" xmlns="http://www.w3.org/2000/svg">
<path d="M30.4325 10.5729C30.4997 7.797 30.0738 5.04183 29.1942 2.56326C28.5973 1.54624 27.7691 0.859913 26.8537 0.623869C23.0674 0.134222 19.2654 -0.0664679 15.4641 0.0226585C11.6766 -0.0705131 7.88833 0.123701 4.11535 0.604476C3.36941 0.797865 2.67909 1.29653 2.12864 2.03962C0.903964 3.64932 0.767881 6.40325 0.631806 8.73052C0.434377 12.9149 0.434377 17.1134 0.631806 21.2978C0.671173 22.6076 0.808017 23.9079 1.04003 25.1765C1.20411 26.1561 1.53606 27.0623 2.00617 27.8141C2.56036 28.5966 3.26676 29.1236 4.03371 29.3268C6.96738 29.843 9.92339 30.0568 12.8786 29.9668C17.6413 30.0638 21.8189 29.9668 26.7584 29.4238C27.5442 29.2331 28.2705 28.7054 28.8404 27.9111C29.2213 27.3679 29.5059 26.703 29.6704 25.9717C30.1571 23.8434 30.3961 21.616 30.378 19.3778C30.4325 18.2917 30.4325 11.7366 30.4325 10.5729ZM12.3888 20.5414V8.53658L20.4445 14.5681C18.1856 16.3523 15.2055 18.3693 12.3888 20.5414Z" fill="black"/>
</svg>
